<svg version="1.1" xmlns="http://www.w3.org/2000/svg" xmlns:xlink="http://www.w3.org/1999/xlink" width="238.000000pt" height="237.000000pt" viewBox="0,0,256,254.92188"><g fill="#ffffff" fill-rule="nonzero" stroke="none" stroke-width="1" stroke-linecap="butt" stroke-linejoin="miter" stroke-miterlimit="10" stroke-dasharray="" stroke-dashoffset="0" font-family="none" font-weight="none" font-size="none" text-anchor="none" style="mix-blend-mode: normal"><g transform="translate(0.16084,-0.34631) scale(1.07563,1.07563)"><g transform="translate(0,237) scale(0.1,-0.1)"><path d="M958,2341c-244,-53 -433,-155 -603,-326c-153,-152 -256,-332 -312,-545c-38,-141 -43,-373 -13,-520c94,-458 430,-807 888,-923c74,-18 115,-22 272,-22c157,0 198,4 272,22c447,113 782,453 885,898c28,122 25,408 -4,527c-110,436 -430,761 -862,875c-133,36 -392,42 -523,14zM1613,2014c90,-23 113,-38 212,-133c50,-48 107,-100 128,-115c33,-25 37,-33 37,-73c0,-41 -2,-45 -35,-59c-33,-13 -35,-17 -35,-62c-1,-26 -7,-58 -14,-71c-13,-23 -13,-23 -20,18c-16,101 -110,121 -167,35c-26,-39 -24,-72 11,-216c17,-67 30,-138 30,-156c0,-22 -20,-69 -59,-140c-116,-209 -150,-324 -151,-512c0,-52 2,-57 33,-75l32,-19l-30,-7c-58,-13 -75,-10 -75,11c0,11 -6,20 -14,20c-11,0 -13,9 -9,34c8,52 -15,229 -38,291c-39,104 -88,133 -249,149c-54,5 -54,5 -18,-7c20,-7 39,-15 42,-18c4,-3 -52,-49 -123,-102c-127,-93 -130,-97 -166,-172c-60,-125 -59,-205 5,-273c12,-13 20,-25 19,-26c-2,-2 -22,-1 -45,2c-40,4 -42,6 -79,81c-35,73 -37,83 -39,179c-1,94 1,103 19,108c54,17 103,47 114,71c16,34 8,39 -26,16c-31,-22 -86,-43 -175,-68c-71,-19 -103,-46 -177,-148c-97,-136 -107,-164 -69,-204l21,-23h-44c-77,0 -78,6 -25,121c46,100 48,107 67,282c17,146 18,185 8,209c-16,39 -52,53 -90,34c-27,-14 -29,-13 -29,6c0,11 17,37 38,58c29,30 49,40 87,45c34,6 74,24 133,63c85,55 408,222 468,242c57,19 112,68 161,142c62,93 152,190 225,239c71,49 74,63 12,53c-59,-8 -53,6 17,41c27,14 49,27 49,30c0,2 -13,11 -30,20c-50,26 -119,19 -194,-18c-36,-19 -66,-31 -66,-27c0,3 16,25 36,48c73,85 161,109 287,76zM1404,772c8,-16 20,-49 26,-74c11,-43 10,-51 -25,-129c-33,-75 -36,-88 -26,-119c7,-25 19,-39 38,-46c27,-9 25,-10 -35,-28c-34,-11 -65,-16 -69,-12c-4,4 -2,26 4,49c10,34 9,45 -2,56c-11,11 -7,26 26,94c35,73 39,89 39,159c0,43 2,78 5,78c2,0 11,-13 19,-28z"></path></g></g></g></svg>