<?xml version="1.0" standalone="no"?>
<!DOCTYPE svg PUBLIC "-//W3C//DTD SVG 20010904//EN"
 "http://www.w3.org/TR/2001/REC-SVG-20010904/DTD/svg10.dtd">
<svg version="1.0" xmlns="http://www.w3.org/2000/svg"
 width="238.000000pt" height="237.000000pt" viewBox="0 0 238.000000 237.000000"
 preserveAspectRatio="xMidYMid meet">

<g transform="translate(0.000000,237.000000) scale(0.100000,-0.100000)"
fill="#000000" stroke="none">
<path d="M958 2341 c-244 -53 -433 -155 -603 -326 -153 -152 -256 -332 -312
-545 -38 -141 -43 -373 -13 -520 94 -458 430 -807 888 -923 74 -18 115 -22
272 -22 157 0 198 4 272 22 447 113 782 453 885 898 28 122 25 408 -4 527
-110 436 -430 761 -862 875 -133 36 -392 42 -523 14z m655 -327 c90 -23 113
-38 212 -133 50 -48 107 -100 128 -115 33 -25 37 -33 37 -73 0 -41 -2 -45 -35
-59 -33 -13 -35 -17 -35 -62 -1 -26 -7 -58 -14 -71 -13 -23 -13 -23 -20 18
-16 101 -110 121 -167 35 -26 -39 -24 -72 11 -216 17 -67 30 -138 30 -156 0
-22 -20 -69 -59 -140 -116 -209 -150 -324 -151 -512 0 -52 2 -57 33 -75 l32
-19 -30 -7 c-58 -13 -75 -10 -75 11 0 11 -6 20 -14 20 -11 0 -13 9 -9 34 8 52
-15 229 -38 291 -39 104 -88 133 -249 149 -54 5 -54 5 -18 -7 20 -7 39 -15 42
-18 4 -3 -52 -49 -123 -102 -127 -93 -130 -97 -166 -172 -60 -125 -59 -205 5
-273 12 -13 20 -25 19 -26 -2 -2 -22 -1 -45 2 -40 4 -42 6 -79 81 -35 73 -37
83 -39 179 -1 94 1 103 19 108 54 17 103 47 114 71 16 34 8 39 -26 16 -31 -22
-86 -43 -175 -68 -71 -19 -103 -46 -177 -148 -97 -136 -107 -164 -69 -204 l21
-23 -44 0 c-77 0 -78 6 -25 121 46 100 48 107 67 282 17 146 18 185 8 209 -16
39 -52 53 -90 34 -27 -14 -29 -13 -29 6 0 11 17 37 38 58 29 30 49 40 87 45
34 6 74 24 133 63 85 55 408 222 468 242 57 19 112 68 161 142 62 93 152 190
225 239 71 49 74 63 12 53 -59 -8 -53 6 17 41 27 14 49 27 49 30 0 2 -13 11
-30 20 -50 26 -119 19 -194 -18 -36 -19 -66 -31 -66 -27 0 3 16 25 36 48 73
85 161 109 287 76z m-209 -1242 c8 -16 20 -49 26 -74 11 -43 10 -51 -25 -129
-33 -75 -36 -88 -26 -119 7 -25 19 -39 38 -46 27 -9 25 -10 -35 -28 -34 -11
-65 -16 -69 -12 -4 4 -2 26 4 49 10 34 9 45 -2 56 -11 11 -7 26 26 94 35 73
39 89 39 159 0 43 2 78 5 78 2 0 11 -13 19 -28z"/>
</g>
</svg>
