<?xml version="1.0" encoding="UTF-8"?>
<svg version="1.1" xmlns="http://www.w3.org/2000/svg" width="30" height="32">
<path d="M0 0 C3 2 3 2 3.51171875 4.1640625 C3.56972656 4.97617188 3.62773437 5.78828125 3.6875 6.625 C3.78611328 7.85089844 3.78611328 7.85089844 3.88671875 9.1015625 C3.92410156 9.72804688 3.96148438 10.35453125 4 11 C4.66 11 5.32 11 6 11 C5.40268456 16.37583893 5.40268456 16.37583893 3.75 18.9375 C2 20 2 20 -0.6875 19.6875 C-1.8321875 19.3471875 -1.8321875 19.3471875 -3 19 C-3.495 16.525 -3.495 16.525 -4 14 C-3.938125 14.639375 -3.87625 15.27875 -3.8125 15.9375 C-4.03271135 19.53428536 -5.03572783 22.44258434 -6.24609375 25.81640625 C-6.95253425 27.86252148 -7.50797113 29.89335214 -8 32 C-14.45148479 31.0394456 -18.35329369 29.64670631 -23 25 C-24.99059134 21.01881731 -24.51436958 16.32927731 -24 12 C-20.95529228 6.41803584 -17.20116786 4.90253233 -11.3046875 2.859375 C-2.97213622 -0.24767802 -2.97213622 -0.24767802 0 0 Z M-3 7 C-3 10 -3 10 -3 10 Z M-15 16 C-14.73323796 17.98491642 -14.73323796 17.98491642 -14 20 C-13.01 20.33 -12.02 20.66 -11 21 C-11 20.34 -11 19.68 -11 19 C-11.66 19 -12.32 19 -13 19 C-13 18.34 -13 17.68 -13 17 C-12.01 17.33 -11.02 17.66 -10 18 C-9.67 16.35 -9.34 14.7 -9 13 C-11.76223278 13 -12.89281454 14.31425163 -15 16 Z M2 13 C3 15 3 15 3 15 Z " fill="#010101" transform="translate(24,0)"/>
</svg>
